<?xml version="1.0" encoding="UTF-8"?>
<svg id="_Слой_1" data-name=" Слой 1" xmlns="http://www.w3.org/2000/svg" viewBox="0 0 290.65 100.81">
  <defs>
    <style>
      .cls-1 {
        fill: #fff;
      }
    </style>
  </defs>
  <g>
    <path class="cls-1" d="M61.17,5.15V15.29c-.66,.34-1.37,.65-2.14,.94-.77,.28-1.62,.51-2.54,.67-.92,.16-1.92,.25-2.99,.25-1.85,0-3.35-.25-4.5-.74s-2-1.23-2.53-2.21-.8-2.19-.8-3.62V0h-4.04V10.98c0,2.11,.42,3.88,1.27,5.29,.85,1.42,2.08,2.47,3.69,3.17s3.57,1.05,5.86,1.05c1.32,0,2.52-.09,3.59-.28s2.03-.42,2.88-.72c.85-.29,1.6-.58,2.26-.88v13.22h4.04V0h-4.04V5.15h0Z"/>
    <path class="cls-1" d="M89.34,28.38h-5.36v-10.98h14.93v-3.37h-14.93V3.46h15.83V0h-19.78V31.83h19.82v-3.46h-10.51Z"/>
    <path class="cls-1" d="M110.34,3.6h10.92V31.83h4.04V3.6h10.89V0h-25.85s0,3.6,0,3.6Z"/>
    <path class="cls-1" d="M165.54,13.48c-1.59-.64-3.59-.96-6.02-.96h-7.28V0h-3.97V31.83h10.29c2.96,0,5.29-.43,7-1.29,1.7-.86,2.92-2.06,3.64-3.57,.72-1.52,1.08-3.25,1.08-5.2,0-2.16-.4-3.92-1.18-5.28-.79-1.36-1.98-2.36-3.56-3h0Zm-.26,12.16c-.58,.98-1.48,1.7-2.69,2.15s-2.77,.68-4.68,.68h-5.67V15.87h7.03c.74,0,1.52,.06,2.33,.19s1.56,.38,2.24,.77c.68,.39,1.24,.97,1.66,1.75s.64,1.84,.64,3.18c0,1.61-.29,2.9-.87,3.89h0Z"/>
    <path class="cls-1" d="M175.73,5.15V31.83h4.11V0h-4.11V5.15Z"/>
    <path class="cls-1" d="M211.93,.96C210.34,.32,208.34,0,205.91,0h-11.25V31.83h3.97v-12.68h6.43c2.92,0,5.22-.43,6.91-1.3,1.69-.86,2.9-2.05,3.62-3.56,.72-1.51,1.08-3.24,1.08-5.19,0-2.1-.4-3.82-1.18-5.17-.79-1.35-1.98-2.34-3.56-2.98h0Zm-.26,12.04c-.58,.98-1.48,1.7-2.69,2.14-1.21,.45-2.77,.67-4.68,.67h-5.67V3.35h7.01c.76,0,1.54,.06,2.34,.18,.8,.12,1.55,.37,2.24,.75s1.25,.96,1.67,1.73c.42,.78,.64,1.82,.64,3.12,0,1.59-.29,2.88-.87,3.86h0Z"/>
    <path class="cls-1" d="M238.52,28.38h-5.36v-10.98h14.93v-3.37h-14.93V3.46h15.83V0h-19.78V31.83h19.82v-3.46h-10.51Z"/>
  </g>
  <g>
    <path class="cls-1" d="M29.09,88.22v-26.1H8.46c-.12,1.87-.25,3.85-.38,5.91s-.28,4.17-.42,6.33c-.18,2.95-.49,5.44-.93,7.48s-.99,3.75-1.66,5.14c-.65,1.35-1.4,2.5-2.26,3.49H0v10.34H3.46l.22-6.85H29.51l.22,6.85h3.46v-10.34h-4.11v-2.26h.01Zm-17.68,2.27H7.02c.78-1.04,1.47-2.15,2.01-3.37,.63-1.43,1.14-3.1,1.51-5.03s.64-4.21,.8-6.84c.13-2.04,.27-4.08,.4-6.13,.08-1.18,.15-2.33,.22-3.49h13.09v24.87H11.41Z"/>
    <path class="cls-1" d="M64.6,78.76c-.98-.57-2.02-.95-3.13-1.16v-.4c1.07-.33,2.03-.83,2.87-1.49,.84-.67,1.51-1.51,2-2.52s.74-2.19,.74-3.55c0-1.16-.19-2.2-.58-3.12-.39-.92-.99-1.71-1.81-2.36s-1.88-1.15-3.18-1.49c-1.3-.35-2.88-.53-4.74-.53h-11.7v31.83h9.91c2.5,0,4.58-.22,6.24-.66,1.66-.44,2.97-1.05,3.95-1.84,.98-.79,1.67-1.71,2.1-2.78,.42-1.06,.64-2.22,.64-3.47,0-1.64-.31-2.98-.92-4.03-.61-1.05-1.41-1.85-2.39-2.42h0Zm-15.58-9.43v-3.86h7.46c2.13,0,3.73,.4,4.81,1.21s1.62,2.08,1.62,3.82c0,1.03-.24,1.97-.71,2.84-.48,.86-1.23,1.56-2.27,2.1-1.03,.53-2.37,.8-4.01,.8h-6.9v-6.9h0Zm13.88,18.61c-.56,.85-1.46,1.5-2.7,1.96s-2.88,.69-4.9,.69h-6.27v-11.14h6.9c2.47,0,4.39,.42,5.76,1.26,1.37,.84,2.06,2.24,2.06,4.19,0,1.17-.28,2.19-.84,3.03h0Z"/>
    <path class="cls-1" d="M101.93,83.22l-3.93-10.96c-.7-1.96-1.33-3.74-1.9-5.31-.56-1.58-1.14-3.18-1.72-4.82h-5.31c-.58,1.61-1.16,3.2-1.74,4.79-.58,1.58-1.22,3.36-1.92,5.32l-3.95,10.94c-.63,1.69-1.28,3.49-1.95,5.38-.68,1.89-1.33,3.69-1.95,5.4h4.09c.67-1.86,1.35-3.78,2.03-5.77,.27-.77,.51-1.47,.77-2.22h14.38c.25,.73,.5,1.47,.77,2.24,.68,1.97,1.34,3.89,1.98,5.75h4.2c-.61-1.7-1.25-3.47-1.91-5.33-.66-1.85-1.31-3.66-1.93-5.41h0Zm-16.38-.42c.04-.1,.07-.21,.11-.31l5.85-16.72h.38l5.8,16.88c.02,.05,.04,.11,.05,.16h-12.19Z"/>
    <path class="cls-1" d="M143.29,88.22v-26.1h-20.63c-.12,1.87-.25,3.85-.38,5.91s-.28,4.17-.42,6.33c-.18,2.95-.49,5.44-.92,7.48-.44,2.04-.99,3.75-1.67,5.14-.65,1.35-1.4,2.5-2.26,3.49h-2.81v10.34h3.46l.22-6.85h25.82l.23,6.85h3.46v-10.34h-4.11v-2.26h0Zm-17.68,2.27h-4.38c.78-1.04,1.47-2.15,2.01-3.37,.63-1.43,1.13-3.1,1.51-5.03,.37-1.93,.64-4.21,.81-6.84,.13-2.04,.27-4.08,.4-6.13,.08-1.18,.15-2.33,.22-3.49h13.09v24.87h-13.66Z"/>
    <path class="cls-1" d="M184.01,88.22v-26.1h-4.04v28.35h-16.65v-28.35h-4.04v31.83h25.16l.23,6.85h3.46v-10.34h-4.11v-2.24Z"/>
    <path class="cls-1" d="M221.56,83.22l-3.93-10.96c-.7-1.96-1.33-3.74-1.9-5.31-.56-1.58-1.14-3.18-1.72-4.82h-5.31c-.58,1.61-1.16,3.2-1.74,4.79-.58,1.58-1.22,3.36-1.92,5.32l-3.95,10.94c-.63,1.69-1.28,3.49-1.95,5.38-.68,1.89-1.33,3.69-1.95,5.4h4.09c.67-1.86,1.35-3.78,2.03-5.77,.27-.77,.51-1.47,.77-2.22h14.39c.25,.73,.5,1.47,.77,2.24,.68,1.97,1.34,3.89,1.98,5.75h4.2c-.61-1.7-1.25-3.47-1.91-5.33-.66-1.85-1.31-3.66-1.93-5.41h-.02Zm-16.38-.42c.04-.1,.07-.21,.11-.31l5.85-16.72h.38l5.8,16.88c.02,.05,.04,.11,.05,.16h-12.19Z"/>
    <path class="cls-1" d="M230.71,65.72h10.92v28.24h4.04v-28.24h10.89v-3.6h-25.85v3.6h0Z"/>
    <path class="cls-1" d="M289.47,78.61c-.79-1.36-1.97-2.36-3.56-3-1.58-.64-3.59-.96-6.01-.96h-7.28v-12.53h-3.97v31.83h10.29c2.96,0,5.3-.43,7-1.29s2.92-2.06,3.64-3.57c.72-1.52,1.08-3.25,1.08-5.2,0-2.16-.39-3.92-1.18-5.28h-.01Zm-3.82,9.16c-.58,.98-1.48,1.7-2.69,2.15-1.22,.45-2.77,.68-4.68,.68h-5.67v-12.61h7.03c.74,0,1.52,.06,2.33,.19,.81,.13,1.56,.38,2.24,.77,.69,.39,1.24,.97,1.67,1.75s.63,1.84,.63,3.18c0,1.61-.29,2.9-.87,3.89h.01Z"/>
  </g>
</svg>