<?xml version="1.0" encoding="UTF-8"?>
<svg id="_Слой_1" data-name="Слой 1" xmlns="http://www.w3.org/2000/svg" viewBox="186.72 137.61 140.59 118.59">
  <defs>
    <style>
      .cls-1 {
        fill: #dfabad;
      }

      .cls-2 {
        fill: #191919;
      }
    </style>
  </defs>
  <path class="cls-2" d="M307.72,158.85h-17.99c-3.17-12.27-14.32-21.24-27.45-21.24h-.9c-13.2,0-24.3,8.96-27.45,21.24h-19.08l-7.08,97.35h107.01l-7.08-97.35Zm-46.34-14.44h.9c9.38,0,17.41,6.01,20.35,14.44h-41.6c2.93-8.45,10.94-14.44,20.35-14.44Zm-21.55,30.35l.03-9.1h43.94l.04,9.1h6.8v-8.84s0-.11,0-.26h10.77l6.08,83.75h-92.39l6.08-83.75h11.86c0,.17,0,.3,0,.31v8.8h6.8Z"/>
  
</svg>